<svg width="19" height="19" viewBox="0 0 19 19" fill="none" xmlns="http://www.w3.org/2000/svg">
<path d="M12.5784 4.39337C12.648 4.32377 12.7308 4.26858 12.8218 4.23095C12.9128 4.19332 13.0103 4.17398 13.1088 4.17405C13.2073 4.17412 13.3048 4.19358 13.3958 4.23133C13.4868 4.26908 13.5694 4.32438 13.639 4.39407C13.7086 4.46376 13.7638 4.54648 13.8014 4.6375C13.8391 4.72852 13.8584 4.82606 13.8583 4.92455C13.8583 5.02304 13.8388 5.12056 13.8011 5.21153C13.7633 5.30249 13.708 5.38514 13.6383 5.45473L12.5784 4.39337ZM12.309 5.72273L11.7786 5.1924L11.779 5.19204L12.309 5.72273ZM9.29067 9.80167C9.15001 9.94233 8.95925 10.0213 8.76034 10.0213C8.56142 10.0213 8.37066 9.94233 8.23001 9.80167C8.08935 9.66102 8.01034 9.47025 8.01034 9.27134C8.01034 9.07243 8.08935 8.88167 8.23001 8.74101L9.29067 9.80167ZM8.22347 8.74755C8.36412 8.6069 8.55488 8.52788 8.75379 8.52788C8.95271 8.52788 9.14347 8.6069 9.28413 8.74755C9.42478 8.88821 9.50379 9.07897 9.50379 9.27788C9.50379 9.4768 9.42478 9.66756 9.28413 9.80821L8.22347 8.74755ZM5.45391 13.6384C5.31325 13.7791 5.12249 13.8581 4.92357 13.8581C4.72466 13.8581 4.5339 13.7791 4.39325 13.6384C4.25259 13.4978 4.17357 13.307 4.17357 13.1081C4.17357 12.9092 4.25259 12.7184 4.39325 12.5778L5.45391 13.6384ZM13.6383 5.45473L13.6251 5.46799L12.5649 4.4068L12.5784 4.39337L13.6383 5.45473ZM13.6251 5.46799L13.4677 5.62532L12.4079 4.56378L12.5649 4.4068L13.6251 5.46799ZM13.4677 5.62532L13.3107 5.7823L12.2508 4.72093L12.4079 4.56378L13.4677 5.62532ZM13.3107 5.7823L13.1532 5.93946L12.0935 4.87791L12.2508 4.72093L13.3107 5.7823ZM13.1532 5.93946L12.9961 6.09626L11.9361 5.03489L12.0935 4.87791L13.1532 5.93946ZM12.9961 6.09626L12.8389 6.25341L11.779 5.19204L11.9361 5.03489L12.9961 6.09626ZM12.8393 6.25306L9.29067 9.80167L8.23001 8.74101L11.7786 5.1924L12.8393 6.25306ZM9.28413 9.80821L5.45391 13.6384L4.39325 12.5778L8.22347 8.74755L9.28413 9.80821Z" fill="black"/>
<path d="M4.93031 4.31484L12.4173 4.31502C12.5897 4.31501 12.7604 4.34896 12.9196 4.41492C13.0789 4.48088 13.2236 4.57756 13.3455 4.69944C13.4674 4.82133 13.564 4.96603 13.63 5.12528C13.696 5.28453 13.7299 5.45522 13.7299 5.62759L13.7297 13.1146" stroke="black" stroke-width="1.5" stroke-linecap="round" stroke-linejoin="round"/>
</svg>
