<svg width="7" height="13" viewBox="0 0 7 13" fill="none" xmlns="http://www.w3.org/2000/svg">
<path d="M2.2375 4.04576V8.54107C2.24269 8.86979 2.37692 9.18328 2.61122 9.41391C2.84551 9.64453 3.16109 9.77379 3.48984 9.77379C3.8186 9.77379 4.13418 9.64453 4.36847 9.41391C4.60277 9.18328 4.737 8.86979 4.74219 8.54107L4.74625 2.64888C4.74966 2.36792 4.69726 2.08908 4.5921 1.82852C4.48694 1.56796 4.33111 1.33087 4.13364 1.13098C3.93616 0.931099 3.70098 0.7724 3.44171 0.664087C3.18245 0.555773 2.90426 0.5 2.62328 0.5C2.3423 0.5 2.06412 0.555773 1.80485 0.664087C1.54559 0.7724 1.3104 0.931099 1.11293 1.13098C0.915452 1.33087 0.759618 1.56796 0.654458 1.82852C0.549298 2.08908 0.496904 2.36792 0.500313 2.64888V8.58076C0.494588 8.9763 0.567552 9.36904 0.714962 9.73614C0.862372 10.1032 1.08129 10.4374 1.35898 10.7191C1.63667 11.0009 1.9676 11.2246 2.33253 11.3773C2.69746 11.53 3.0891 11.6086 3.48469 11.6086C3.88028 11.6086 4.27192 11.53 4.63685 11.3773C5.00177 11.2246 5.3327 11.0009 5.6104 10.7191C5.88809 10.4374 6.107 10.1032 6.25441 9.73614C6.40182 9.36904 6.47479 8.9763 6.46906 8.58076V3.03763" stroke="black" stroke-miterlimit="10" stroke-linecap="round"/>
</svg>
