<svg width="10" height="14" viewBox="0 0 10 14" fill="none" xmlns="http://www.w3.org/2000/svg">
<path fill-rule="evenodd" clip-rule="evenodd" d="M2.8 3V7C2.8 7.28891 2.8569 7.57499 2.96747 7.8419C3.07803 8.10882 3.24008 8.35135 3.44437 8.55564C3.64865 8.75992 3.89118 8.92197 4.1581 9.03254C4.42501 9.1431 4.71109 9.2 5 9.2C5.28891 9.2 5.57499 9.1431 5.8419 9.03254C6.10882 8.92197 6.35135 8.75992 6.55564 8.55564C6.75992 8.35135 6.92197 8.10882 7.03254 7.8419C7.1431 7.57499 7.2 7.28891 7.2 7V3C7.2 2.41652 6.96822 1.85695 6.55564 1.44437C6.14305 1.03179 5.58348 0.8 5 0.8C4.41652 0.8 3.85695 1.03179 3.44437 1.44437C3.03179 1.85695 2.8 2.41652 2.8 3ZM5.4 11.984V14H4.6V11.984C3.34718 11.8835 2.17819 11.3148 1.32576 10.3912C0.473326 9.46759 -6.45565e-06 8.25684 0 7V6H0.8V7C0.8 8.11391 1.2425 9.1822 2.03015 9.96985C2.8178 10.7575 3.88609 11.2 5 11.2C6.11391 11.2 7.1822 10.7575 7.96985 9.96985C8.7575 9.1822 9.2 8.11391 9.2 7V6H10V7C10 8.25684 9.52667 9.46759 8.67424 10.3912C7.82181 11.3148 6.65282 11.8835 5.4 11.984ZM2 3C2 2.20435 2.31607 1.44129 2.87868 0.87868C3.44129 0.31607 4.20435 0 5 0C5.79565 0 6.55871 0.31607 7.12132 0.87868C7.68393 1.44129 8 2.20435 8 3V7C8 7.79565 7.68393 8.55871 7.12132 9.12132C6.55871 9.68393 5.79565 10 5 10C4.20435 10 3.44129 9.68393 2.87868 9.12132C2.31607 8.55871 2 7.79565 2 7V3Z" fill="black"/>
</svg>
