<svg width="14" height="14" viewBox="0 0 14 14" fill="none" xmlns="http://www.w3.org/2000/svg">
<path d="M6.21363 1.07592C6.2137 0.977425 6.23316 0.879911 6.27092 0.788942C6.30867 0.697972 6.36397 0.61533 6.43366 0.545733C6.50335 0.476135 6.58606 0.420946 6.67708 0.383315C6.7681 0.345685 6.86564 0.326351 6.96413 0.326416C7.06263 0.326482 7.16014 0.345946 7.25111 0.383698C7.34208 0.42145 7.42472 0.476749 7.49432 0.54644C7.56392 0.61613 7.6191 0.698846 7.65674 0.789866C7.69437 0.880885 7.7137 0.978425 7.71363 1.07692L6.21363 1.07592ZM6.96313 2.20642H6.21313V2.20592L6.96313 2.20642ZM7.71313 7.22492C7.71313 7.42383 7.63412 7.61459 7.49346 7.75525C7.35281 7.8959 7.16205 7.97492 6.96313 7.97492C6.76422 7.97492 6.57346 7.8959 6.4328 7.75525C6.29215 7.61459 6.21313 7.42383 6.21313 7.22492H7.71313ZM6.21313 7.23417C6.21313 7.03525 6.29215 6.84449 6.4328 6.70384C6.57346 6.56318 6.76422 6.48417 6.96313 6.48417C7.16205 6.48417 7.35281 6.56318 7.49346 6.70384C7.63412 6.84449 7.71313 7.03525 7.71313 7.23417H6.21313ZM7.71313 12.6509C7.71313 12.8498 7.63412 13.0406 7.49346 13.1812C7.35281 13.3219 7.16205 13.4009 6.96313 13.4009C6.76422 13.4009 6.57346 13.3219 6.4328 13.1812C6.29215 13.0406 6.21313 12.8498 6.21313 12.6509H7.71313ZM7.71363 1.07692V1.09567L6.21363 1.09492V1.07592L7.71363 1.07692ZM7.71363 1.09567V1.31817L6.21363 1.31692V1.09492L7.71363 1.09567ZM7.71363 1.31817V1.54017L6.21363 1.53917V1.31692L7.71363 1.31817ZM7.71363 1.54017L7.71338 1.76267L6.21338 1.76142L6.21363 1.53917L7.71363 1.54017ZM7.71338 1.76267L7.71313 1.98467L6.21313 1.98367L6.21338 1.76142L7.71338 1.76267ZM7.71313 1.98467V2.20692L6.21313 2.20592V1.98367L7.71313 1.98467ZM7.71313 2.20642V7.22492H6.21313V2.20642H7.71313ZM7.71313 7.23417L7.71313 12.6509H6.21313L6.21313 7.23417H7.71313Z" fill="white"/>
<path d="M0.750122 6.42847L6.04437 1.13447C6.16625 1.01258 6.31094 0.915888 6.47019 0.849921C6.62944 0.783953 6.80013 0.75 6.9725 0.75C7.14487 0.75 7.31555 0.783953 7.4748 0.849921C7.63405 0.915888 7.77874 1.01258 7.90062 1.13447L13.1946 6.42872" stroke="white" stroke-width="1.5" stroke-linecap="round" stroke-linejoin="round"/>
</svg>
